name analog
datacolumns 19
datarows 28
range 0.546 0.5595
endheader
time	ground_force_vx	ground_force_vy	ground_force_vz	ground_force_px	ground_force_py	ground_force_pz	l_ground_force_vx	l_ground_force_vy	l_ground_force_vz	l_ground_force_px	l_ground_force_py	l_ground_force_pz	ground_torque_x	ground_torque_y	ground_torque_z	l_ground_torque_x	l_ground_torque_y	l_ground_torque_z
0.546	-0.0	-0.0	-0.0	0.999020218849182	19.28754425048828	-135.55372619628906	2.111612558364868	-12.240501403808594	-107.60736083984376	-0.0	-0.0	-0.0	-0.0	-0.0	-0.0	25206.791015625	1203.606201171875	-1229.5006103515625
0.5465	-0.0	-0.0	-0.0	4.068665981292725	19.252166748046875	-143.18028259277344	2.588831663131714	-11.216854095458984	-114.1675796508789	-0.0	-0.0	-0.0	-0.0	-0.0	-0.0	27004.1875	904.6206665039062	-1187.5694580078125
0.547	-0.0	-0.0	-0.0	8.118268013000488	19.323381423950195	-153.84490966796875	4.915122032165527	-9.944479942321776	-123.25051879882812	-0.0	-0.0	-0.0	-0.0	-0.0	-0.0	29144.560546875	442.4665832519531	-912.4400024414062
0.5475	-0.0	-0.0	-0.0	13.3279390335083	19.358976364135746	-168.1129150390625	8.144384384155273	-8.354866027832031	-133.0291748046875	-0.0	-0.0	-0.0	-0.0	-0.0	-0.0	31730.263671875	-133.04803466796875	-577.6221923828125
0.548	-0.0	-0.0	-0.0	19.91024780273437	19.9652099609375	-189.22901916503903	12.579489707946776	-7.330699920654297	-145.03817749023438	-0.0	-0.0	-0.0	-0.0	-0.0	-0.0	34877.296875	-745.2403564453125	297.8088684082031
0.5485	-0.0	-0.0	-0.0	25.87028312683105	20.731426239013672	-215.22300720214844	18.682540893554688	-6.200175285339356	-161.72727966308594	-0.0	-0.0	-0.0	-0.0	-0.0	-0.0	38972.28515625	-2032.26611328125	1548.3238525390625
0.549	-0.0	-0.0	-0.0	30.278470993041992	23.04869842529297	-247.0788116455078	24.678878784179688	-5.970699310302734	-183.02345275878903	-0.0	-0.0	-0.0	-0.0	-0.0	-0.0	44453.84375	-3265.819580078125	2929.06103515625
0.5495	-0.0	-0.0	-0.0	30.40265655517578	27.52176094055176	-287.5376892089844	29.06140518188477	-7.277953624725342	-208.1598052978516	-0.0	-0.0	-0.0	-0.0	-0.0	-0.0	51104.94140625	-4832.01220703125	3762.463134765625
0.55	-0.0	-0.0	-0.0	24.944238662719727	32.154659271240234	-328.797607421875	30.233299255371094	-11.269516944885254	-239.30003356933597	-0.0	-0.0	-0.0	-0.0	-0.0	-0.0	59098.58203125	-6795.2744140625	4284.27294921875
0.5505	-0.0	-0.0	-0.0	16.491256713867188	36.84540557861328	-368.2872924804688	29.504793167114254	-17.662277221679688	-273.7933349609375	-0.0	-0.0	-0.0	-0.0	-0.0	-0.0	67634.96875	-8676.4833984375	4127.794921875
0.551	-0.0	-0.0	-0.0	9.854132652282717	40.78519058227539	-405.8586730957031	25.957612991333008	-25.27516365051269	-308.08258056640625	-0.0	-0.0	-0.0	-0.0	-0.0	-0.0	76227.4296875	-10643.4794921875	3524.91748046875
0.5515	-0.0	-0.0	-0.0	5.263420104980469	43.53228759765625	-431.8565368652344	21.100156784057617	-33.382232666015625	-340.6163635253906	-0.0	-0.0	-0.0	-0.0	-0.0	-0.0	84342.9921875	-12287.8984375	2824.611083984375
0.552	-0.0	-0.0	-0.0	2.0702567100524902	46.05915832519531	-449.5138244628906	17.084877014160156	-40.96115112304688	-366.81549072265625	-0.0	-0.0	-0.0	-0.0	-0.0	-0.0	90775.7578125	-13491.9140625	2060.705322265625
0.5525	-0.0	-0.0	-0.0	-0.5291100144386292	48.57607269287109	-454.3355407714844	13.66372299194336	-46.95090866088867	-384.8994140625	-0.0	-0.0	-0.0	-0.0	-0.0	-0.0	95121.28125	-13886.640625	1694.7264404296875
0.553	-0.0	-0.0	-0.0	-2.6241376399993896	51.0902214050293	-455.45550537109375	11.534957885742188	-51.683815002441406	-394.18212890625	-0.0	-0.0	-0.0	-0.0	-0.0	-0.0	97303.96875	-13863.271484375	1609.1416015625
0.5535	-0.0	-0.0	-0.0	-4.653800010681152	52.89147567749024	-451.1579895019531	9.721534729003906	-55.460208892822266	-398.0213623046875	-0.0	-0.0	-0.0	-0.0	-0.0	-0.0	97661.03125	-13312.5732421875	1440.237060546875
0.554	-0.0	-0.0	-0.0	-5.798683166503906	54.1912841796875	-445.2861633300781	7.717838287353516	-58.39892578125	-397.4668273925781	-0.0	-0.0	-0.0	-0.0	-0.0	-0.0	96689.4375	-12619.2021484375	1213.023193359375
0.5545	-0.0	-0.0	-0.0	-5.089155673980713	55.67333984375	-437.7378234863281	5.766201019287109	-60.9569091796875	-392.3148498535156	-0.0	-0.0	-0.0	-0.0	-0.0	-0.0	95506.96875	-11603.4755859375	860.054443359375
0.555	-0.0	-0.0	-0.0	-5.3241801261901855	56.36335754394531	-432.9243774414063	4.454037666320801	-62.26679229736328	-387.4275817871094	-0.0	-0.0	-0.0	-0.0	-0.0	-0.0	93953.125	-10640.2041015625	528.7551879882812
0.5555	-0.0	-0.0	-0.0	-5.451022148132324	56.56503677368164	-426.8647155761719	3.3048267364501958	-63.23832702636719	-382.8004455566406	-0.0	-0.0	-0.0	-0.0	-0.0	-0.0	92499.0859375	-9863.6923828125	147.007080078125
0.556	-0.0	-0.0	-0.0	-5.812384605407715	56.34927368164063	-421.6221008300781	2.506864309310913	-62.81525039672852	-377.4500122070313	-0.0	-0.0	-0.0	-0.0	-0.0	-0.0	91120.875	-9143.4423828125	-262.4773254394531
0.5565	-0.0	-0.0	-0.0	-6.371787071228027	55.94147491455078	-413.85198974609375	1.6341041326522827	-62.93621826171875	-370.8904418945313	-0.0	-0.0	-0.0	-0.0	-0.0	-0.0	89701.625	-7950.306640625	-601.8663940429688
0.557	-0.0	-0.0	-0.0	-6.952733993530273	54.98017501831055	-408.9598693847656	0.4484110474586487	-61.28145980834961	-366.8110656738281	-0.0	-0.0	-0.0	-0.0	-0.0	-0.0	88182.9140625	-7677.11328125	-1058.1214599609375
0.5575	-0.0	-0.0	-0.0	-6.658734321594238	53.51631164550781	-400.7323303222656	0.1586355566978454	-59.501800537109375	-360.821533203125	-0.0	-0.0	-0.0	-0.0	-0.0	-0.0	86808.4296875	-7008.90966796875	-1485.638916015625
0.558	-0.0	-0.0	-0.0	-6.448817253112793	51.9758415222168	-390.1882629394531	-0.2795283198356628	-57.30743789672852	-353.4155578613281	-0.0	-0.0	-0.0	-0.0	-0.0	-0.0	85125.46875	-6419.84716796875	-1836.8536376953125
0.5585	-0.0	-0.0	-0.0	-5.8878936767578125	49.652103424072266	-381.86328125	-0.0056420266628265	-54.68991470336914	-345.20684814453125	-0.0	-0.0	-0.0	-0.0	-0.0	-0.0	83352.640625	-5978.615234375	-2236.8115234375
0.559	-0.0	-0.0	-0.0	-6.493157386779785	47.69160079956055	-366.93206787109375	-0.658861517906189	-51.98973083496094	-338.2024230957031	-0.0	-0.0	-0.0	-0.0	-0.0	-0.0	81303.3828125	-5501.734375	-2480.115966796875
0.5595	-0.0	-0.0	-0.0	-5.755147457122803	45.21549606323242	-354.6972045898437	-0.5955698490142822	-49.49798202514648	-330.8709716796875	-0.0	-0.0	-0.0	-0.0	-0.0	-0.0	79358.8828125	-5230.10302734375	-2735.733642578125
